<svg width="140" height="123" viewBox="0 0 140 123" fill="none" xmlns="http://www.w3.org/2000/svg">
<g clip-path="url(#clip0_1_76)">
<path d="M0.0199367 108.783C0.0320754 108.834 0.0487922 108.885 0.0699098 108.933C0.0753518 108.964 0.0854601 108.995 0.0998997 109.023L7.37775 121.64L7.40774 121.67C7.42788 121.703 7.45134 121.733 7.47773 121.76C7.51772 121.8 7.5577 121.83 7.59769 121.87C7.62768 121.89 7.63769 121.92 7.66768 121.93C7.67941 121.938 7.69355 121.942 7.70764 121.94C7.81619 121.996 7.9357 122.027 8.05755 122.03H131.891C132.013 122.027 132.132 121.996 132.241 121.94C132.271 121.92 132.291 121.9 132.321 121.88C132.402 121.83 132.47 121.761 132.521 121.68C132.531 121.66 132.551 121.65 132.571 121.631L139.859 109.013C139.869 109.003 139.869 108.983 139.879 108.973C139.898 108.942 139.911 108.909 139.919 108.873C139.929 108.843 139.939 108.803 139.949 108.773C139.957 108.74 139.96 108.707 139.959 108.673C139.959 108.653 139.969 108.643 139.969 108.623C139.969 108.603 139.959 108.593 139.959 108.573C139.959 108.553 139.949 108.503 139.949 108.473C139.949 108.443 139.929 108.403 139.919 108.373C139.908 108.339 139.895 108.305 139.879 108.273C139.869 108.263 139.869 108.243 139.859 108.233L77.947 0.984526C77.9295 0.959138 77.9094 0.935678 77.887 0.91454C77.8557 0.869946 77.8187 0.829616 77.777 0.794564C77.6986 0.736837 77.6149 0.686625 77.5271 0.644594C77.475 0.628882 77.4214 0.618827 77.3671 0.6146C77.3372 0.6146 77.3072 0.594604 77.2672 0.594604H62.7015C62.6815 0.594604 62.6715 0.604602 62.6515 0.604602C62.6315 0.604602 62.5815 0.6146 62.5515 0.6146L62.4415 0.644594C62.4072 0.655299 62.3738 0.66867 62.3416 0.684586C62.3298 0.692538 62.3157 0.69608 62.3016 0.694584C62.2902 0.706934 62.2766 0.717098 62.2616 0.724578C62.2332 0.742122 62.2064 0.7622 62.1816 0.784566C62.1525 0.808649 62.1257 0.835429 62.1016 0.86455C62.0816 0.894544 62.0616 0.91454 62.0416 0.944534C62.0293 0.955927 62.0191 0.96948 62.0117 0.984526L0.0898929 108.243C0.0754533 108.271 0.065345 108.302 0.0599029 108.333C0.0387702 108.382 0.022053 108.432 0.00992988 108.483C0.0016236 108.533 -0.00173507 108.583 -7.6939e-05 108.633C0.00992012 108.683 0.00993964 108.733 0.0199367 108.783ZM76.8173 2.16429L137.829 107.843H31.2807L37.6588 96.8054H117.345C117.469 96.8044 117.59 96.7699 117.695 96.7055C117.705 96.6955 117.725 96.7055 117.735 96.6955C117.761 96.678 117.784 96.6579 117.805 96.6355C117.848 96.6016 117.888 96.5648 117.925 96.5255C117.955 96.4879 117.982 96.4478 118.005 96.4055C118.035 96.3675 118.056 96.323 118.065 96.2756C118.086 96.2247 118.096 96.1704 118.095 96.1156C118.095 96.0856 118.115 96.0556 118.115 96.0156C118.115 95.9956 118.105 95.9856 118.105 95.9656C118.1 95.9148 118.09 95.8646 118.075 95.8157C118.063 95.7643 118.046 95.7141 118.025 95.6657C118.015 95.6557 118.015 95.6357 118.005 95.6257L64.0511 2.16429H76.8173ZM131.451 120.461H9.42714L62.7015 28.1791L69.0796 39.2169L29.2313 108.233C29.2233 108.245 29.2198 108.259 29.2213 108.273C29.2002 108.322 29.1834 108.372 29.1713 108.423C29.1566 108.472 29.1465 108.522 29.1413 108.573C29.1413 108.593 29.1314 108.603 29.1314 108.623C29.1314 108.643 29.1513 108.683 29.1513 108.723C29.1565 108.777 29.1665 108.831 29.1813 108.883C29.2013 108.933 29.2213 108.973 29.2413 109.013C29.2656 109.055 29.2924 109.095 29.3213 109.133C29.3613 109.173 29.4013 109.203 29.4413 109.243C29.4713 109.263 29.4813 109.293 29.5112 109.303C29.5212 109.313 29.5412 109.303 29.5512 109.313C29.6591 109.372 29.7785 109.406 29.9011 109.413H137.809L131.451 120.461ZM101.41 95.2358H38.5586L69.9893 40.7966L101.41 95.2358ZM62.7015 2.95413L115.976 95.2358H103.23L63.3913 26.2195C63.3789 26.2081 63.3687 26.1946 63.3613 26.1795C63.3313 26.1395 63.2913 26.0995 63.2613 26.0595C63.226 26.021 63.1856 25.9873 63.1413 25.9596C63.1299 25.9472 63.1164 25.937 63.1013 25.9296C63.073 25.9151 63.0427 25.905 63.0114 25.8996C62.963 25.8784 62.9128 25.8617 62.8614 25.8496C62.7619 25.8362 62.661 25.8362 62.5615 25.8496C62.5101 25.8617 62.4599 25.8784 62.4115 25.8996C62.3802 25.905 62.3499 25.9151 62.3216 25.9296C62.3102 25.9419 62.2966 25.9521 62.2816 25.9596C62.2416 25.9895 62.2016 26.0295 62.1616 26.0595C62.1203 26.0921 62.0863 26.133 62.0617 26.1795C62.0493 26.1909 62.0391 26.2045 62.0317 26.2195L8.07756 119.681L1.69943 108.643L62.7015 2.95413Z" fill="white"/>
</g>
<defs>
<clipPath id="clip0_1_76">
<rect width="139.969" height="121.438" fill="white" transform="translate(0 0.59375)"/>
</clipPath>
</defs>
</svg>
